<svg xmlns="http://www.w3.org/2000/svg"  viewBox="0 0 50 50" width="150px" height="150px"><path fill="#429ad4" d="M23.968,30.422c-0.216,4.259-0.35,8.522-0.402,12.786c-0.016,1.287,1.984,1.288,2,0 c0.052-4.264,0.186-8.527,0.402-12.786C26.033,29.136,24.033,29.139,23.968,30.422L23.968,30.422z"/><path fill="#fd2923" d="M31.931,44.158c-1.564-0.22-3.098-0.459-4.619-0.9c-0.871-0.252-1.978-0.818-2.951-0.707	c-0.013-0.014-0.947,0.197-0.959,0.235c-1.138,0.519-2.423,0.851-3.621,1.134c-0.63,0.149-1.266,0.275-1.906,0.377	c-0.537,0.085-1.169,0.077-1.599,0.458c-0.839,0.743-0.044,1.828,0.841,1.988c0.6,0.108,1.271-0.009,1.875-0.039	c0.782-0.039,1.565-0.07,2.348-0.093c3.009-0.091,6.021-0.072,9.028,0.057c0.887,0.038,2.57,0.462,3.11-0.533	C34.07,45.044,32.838,44.286,31.931,44.158z"/><path fill="#fd2923" d="M38.46,20.443c-0.236-2.316-0.519-4.628-0.847-6.933c-0.343-2.416-1.306-7.668-1.35-7.733	c-0.005-0.007-0.105-0.126-0.147-0.167c-0.033-0.032-0.067-0.062-0.102-0.092c-0.007-0.005-0.022-0.018-0.032-0.027	c-0.096-0.068-0.198-0.129-0.302-0.186c-0.051-0.027-0.103-0.053-0.156-0.079c-0.017-0.008-0.049-0.021-0.08-0.034	c-0.177-0.067-0.356-0.125-0.536-0.18c-0.068-0.008-0.134-0.021-0.202-0.027c-0.374-0.09-0.749-0.177-1.124-0.256	c-0.695-0.148-1.397-0.257-2.103-0.337c-0.179-0.021-0.356-0.053-0.535-0.069c-0.021-0.002-0.043-0.001-0.064-0.003	c-0.041-0.015-0.081-0.032-0.127-0.037c-1.049-0.114-2.101-0.176-3.155-0.218c-0.375-0.03-0.75-0.062-1.126-0.081	c-0.056-0.003-0.111-0.002-0.167-0.005c-0.002,0-0.003,0-0.005,0c-0.002,0-0.005,0-0.007,0c-0.495-0.023-0.989-0.04-1.484-0.044	c-0.233-0.002-0.468-0.006-0.702,0c-1.39-0.161-2.87,0.029-4.201,0.167c-1.041,0.108-2.08,0.269-3.086,0.563	c-0.565,0.165-1.196,0.342-1.573,0.752c-0.11,0.052-0.343,0.664-0.372,0.751c-0.085,0.166-0.164,0.335-0.233,0.507	c-0.24,0.589-0.428,1.184-0.526,1.804c-1.677,5.323-2.841,10.925-1.449,16.433c0.375,1.483,0.918,2.992,1.774,4.27	c0.834,1.245,2.005,2.175,3.253,2.981c2.488,1.608,5.476,2.698,8.473,2.508c0.084-0.005,0.165-0.025,0.248-0.032	c0.899,0.072,1.88-0.111,2.672-0.332c0.527-0.147,1.034-0.348,1.53-0.576c1.238-0.439,2.402-1.062,3.459-1.856	c1.828-1.076,3.291-2.751,4.039-4.842C38.871,24.913,38.683,22.64,38.46,20.443z"/><path fill="#fff" d="M16.658,7.711c-1.595,2.933-2.426,6.245-2.365,9.585c0.014,0.784,0.68,1.537,1.5,1.5 c0.801-0.036,1.515-0.659,1.5-1.5c-0.013-0.728,0.013-1.454,0.088-2.178c0.011-0.103,0.022-0.207,0.035-0.31 c-0.021,0.141-0.018,0.12,0.009-0.064c0.024-0.154,0.048-0.308,0.075-0.461c0.067-0.384,0.148-0.765,0.24-1.143 c0.372-1.521,0.809-2.627,1.508-3.914c0.375-0.689,0.193-1.666-0.538-2.052C18.01,6.803,17.059,6.975,16.658,7.711L16.658,7.711z"/><path fill="#231f20" d="M14.862,23.38c0.952-1.661,3.111-2.458,4.867-2.925c1.928-0.513,4.026-0.59,5.908,0.151 c1.744,0.687,3.089,2.169,4.945,2.61c1.868,0.444,3.759-0.268,5.273-1.345c0.52-0.37,0.021-1.237-0.505-0.863 c-1.748,1.242-3.777,1.807-5.758,0.752c-0.888-0.473-1.682-1.098-2.56-1.589c-0.839-0.469-1.751-0.798-2.699-0.961 c-1.932-0.333-3.926-0.075-5.773,0.554c-1.736,0.592-3.614,1.455-4.563,3.111C13.678,23.434,14.541,23.938,14.862,23.38 L14.862,23.38z"/><path fill="#df4bb1" d="M39.84,7.155c0.074,0.075,0.144,0.152,0.211,0.234c-0.153-0.188,0.019,0.04,0.047,0.085 c0.049,0.078,0.094,0.157,0.136,0.238c0.024,0.047,0.047,0.094,0.07,0.141c0.046,0.103,0.044,0.096-0.006-0.021 c0.097,0.138,0.134,0.37,0.179,0.529c0.051,0.18,0.094,0.362,0.133,0.544c0.042,0.203,0.079,0.407,0.111,0.612 c0.006,0.036,0.059,0.418,0.032,0.209c0.012,0.095,0.023,0.19,0.034,0.286c0.051,0.477,0.078,0.956,0.085,1.436 c0.008,0.523,0.455,1.024,1,1c0.535-0.024,1.008-0.44,1-1c-0.015-1.055-0.126-2.121-0.35-3.152 c-0.205-0.941-0.582-1.859-1.267-2.554c-0.368-0.373-1.051-0.396-1.414,0C39.471,6.143,39.448,6.757,39.84,7.155L39.84,7.155z"/><path fill="#df4bb1" d="M42.765,4.489c0.088,0.07,0.163,0.149,0.245,0.224c0.073,0.086,0.073,0.083,0.002-0.01 c0.033,0.045,0.065,0.091,0.095,0.138c0.107,0.165,0.198,0.339,0.284,0.516c0.055,0.113,0.107,0.228,0.158,0.342 c0.014,0.032,0.121,0.288,0.053,0.121c0.092,0.226,0.179,0.455,0.259,0.686c0.154,0.447,0.285,0.902,0.39,1.363 c0.051,0.222,0.096,0.446,0.135,0.671c0.022,0.128,0.043,0.257,0.062,0.386c-0.029-0.199,0.021,0.184,0.025,0.219 c0.057,0.518,0.419,1.026,1,1c0.493-0.022,1.061-0.443,1-1c-0.122-1.113-0.342-2.206-0.716-3.263 c-0.34-0.961-0.75-2.151-1.578-2.808c-0.409-0.325-1.02-0.429-1.414,0C42.433,3.436,42.327,4.141,42.765,4.489L42.765,4.489z"/><path fill="#ff9600" d="M8.248,27.878c0.354,0.908,0.799,1.769,1.388,2.548c0.632,0.837,1.344,1.548,2.175,2.186 c0.191,0.147,0.551,0.161,0.771,0.101c0.232-0.064,0.483-0.243,0.598-0.46c0.123-0.232,0.184-0.513,0.101-0.771 c-0.086-0.265-0.241-0.43-0.46-0.598c0.085,0.065,0.125,0.098,0.017,0.012c-0.044-0.035-0.087-0.07-0.13-0.106 c-0.077-0.064-0.154-0.13-0.229-0.197c-0.151-0.134-0.297-0.272-0.438-0.416c-0.15-0.151-0.294-0.307-0.433-0.468 c-0.066-0.076-0.131-0.153-0.194-0.232c-0.033-0.04-0.082-0.084-0.105-0.131c0.043,0.089,0.1,0.132,0.014,0.016 c-0.247-0.332-0.473-0.68-0.676-1.041c-0.098-0.176-0.191-0.355-0.278-0.536c-0.048-0.101-0.094-0.203-0.14-0.305 c-0.054-0.121,0.008,0.001,0.022,0.053c-0.016-0.061-0.051-0.128-0.074-0.187c-0.098-0.25-0.22-0.457-0.46-0.598 c-0.214-0.125-0.53-0.179-0.771-0.101C8.475,26.801,8.045,27.356,8.248,27.878L8.248,27.878z"/><path fill="#ff9600" d="M2.281,26.843c0.881,2.954,2.518,5.658,4.741,7.796c-0.098-0.236-0.195-0.471-0.293-0.707 c0,0.011-0.001,0.022-0.001,0.032c0.333-0.333,0.667-0.667,1-1c-0.02,0-0.04,0-0.06,0c0.168,0.046,0.336,0.091,0.505,0.137 c-0.019-0.013-0.038-0.025-0.057-0.038c-0.449-0.3-1.107-0.088-1.368,0.359c-0.287,0.491-0.092,1.067,0.359,1.368 c0.191,0.128,0.393,0.174,0.621,0.175c0.55,0.003,0.987-0.46,1-1c0.013-0.528-0.391-0.825-0.722-1.165 c-0.267-0.275-0.525-0.559-0.772-0.851c-0.454-0.536-0.849-1.085-1.236-1.7c-0.793-1.259-1.368-2.53-1.788-3.937 c-0.154-0.517-0.701-0.844-1.23-0.698C2.466,25.754,2.126,26.324,2.281,26.843L2.281,26.843z"/></svg>