<?xml version="1.0" encoding="utf-8"?>
<!-- Generator: Adobe Illustrator 22.0.1, SVG Export Plug-In . SVG Version: 6.00 Build 0)  -->
<svg version="1.1" id="Layer_1" xmlns="http://www.w3.org/2000/svg" xmlns:xlink="http://www.w3.org/1999/xlink" x="0px" y="0px"
	 viewBox="0 0 68 68" style="enable-background:new 0 0 68 68;" xml:space="preserve">
<style type="text/css">
	.st0{fill:#FDBBAD;}
	.st1{fill:#0E0F16;}
	.st2{fill:#4D7CFE;}
	.st3{fill:#F73731;}
	.st4{fill:#ECA090;}
	.st5{fill:#F8C51A;}
	.st6{fill:#333333;}
	.st7{fill:#FFFFFF;}
	.st8{fill:#234BBA;}
	.st9{fill:#C61F17;}
	.st10{fill:#1BAA75;}
	.st11{fill:#E2EAFF;}
	.st12{fill:#7D9CE3;}
	.st13{fill:#E8EFFF;}
	.st14{fill:#ADBADB;}
	.st15{fill:#062557;}
	.st16{fill:#EF9B13;}
	.st17{fill:#00C960;}
	.st18{fill:#222333;}
	.st19{fill:#0F875A;}
	.st20{fill:#90514F;}
	.st21{fill:#983BBD;}
	.st22{opacity:0.1;}
	.st23{fill:#384B7D;}
	.st24{fill:#7A27A0;}
	.st25{fill:#4D5D77;}
	.st26{fill:#B2BEFF;}
	.st27{fill:#6B7994;}
	.st28{fill:#E8EBF2;}
	.st29{fill:#CCD2E0;}
	.st30{fill:#242C3F;}
	.st31{fill:#652E2C;}
	.st32{opacity:0.15;}
	.st33{fill:#F26678;}
	.st34{fill:#BDC8FF;}
	.st35{fill:#C4CFE8;}
	.st36{fill:#6675E9;}
	.st37{fill:#34324C;}
	.st38{fill:#4276EA;}
	.st39{fill:#316CD3;}
	.st40{fill:none;}
	.st41{opacity:0.6;}
	.st42{fill:#FDF6DA;}
	.st43{fill:#E5AC47;}
	.st44{fill:#404F66;}
	.st45{fill:#FFCCCB;}
	.st46{fill:#4A5258;}
</style>
<g id="_x36_2">
	<g>
		<g>
			<path class="st28" d="M35.492485,2.8545618v62.2907944c0,0.4134827-0.340065,0.7535477-0.7534676,0.7535477H2.7534678
				C2.3400657,65.8989029,2,65.5588379,2,65.1453552V2.8545618C2,2.4410782,2.3400657,2.101094,2.7534678,2.101094h31.9855499
				C35.15242,2.101094,35.492485,2.4410782,35.492485,2.8545618z"/>
		</g>
	</g>
	<g>
		<g>
			<rect x="4.6673346" y="6.017859" class="st29" width="28.1578979" height="18.0513706"/>
		</g>
	</g>
	<g>
		<g>
			<rect x="4.6673346" y="28.0808525" class="st29" width="28.1578979" height="18.0513706"/>
		</g>
	</g>
	<g>
		<g>
			<path class="st2" d="M28.1597748,46.132225h-3.5863361c-0.7569923,0-1.370657-0.6136665-1.370657-1.3706589v-6.3759384
				c0-0.7569923,0.6136646-1.3706551,1.370657-1.3706551h3.5863361c0.7569923,0,1.370657,0.6136627,1.370657,1.3706551v6.3759384
				C29.5304317,45.5185585,28.9167671,46.132225,28.1597748,46.132225z"/>
		</g>
	</g>
	<g>
		<g>
			<g>
				<g>
					<polygon class="st8" points="49.1567116,65.8985672 49.1547737,52.7681274 58.5384941,52.7681274 57.4198303,65.8985672 					
						"/>
				</g>
			</g>
			<g>
				<g>
					<polygon class="st2" points="65.2622375,65.8985672 65.264679,52.7681274 53.4150314,52.7681274 54.8276672,65.8985672 					
						"/>
				</g>
			</g>
		</g>
		<g>
			<g>
				<path class="st10" d="M51.6840706,37.9092751L51.445034,38.214695l-1.6865921,2.6428223
					c-0.1726494,0.258934-0.3784943,0.4913635-0.6042786,0.6839142c-0.1726112,0.1527519-0.3585548,0.2921715-0.5511055,0.3984375
					c-0.5312462,0.3187141-1.1553841,0.4913673-1.7995033,0.4913673h-8.6322365v-4.933651l6.8593178-0.3386536l3.8612328-6.3991566
					c0.6967125-1.1546478,1.9304619-1.878233,3.2782898-1.9226913l1.9028397-0.0831852l-2.6943512,4.5404434L51.6840706,37.9092751z
					"/>
			</g>
		</g>
		<g>
			<g>
				<path class="st10" d="M65.2632523,32.0526314v21.0427322H49.1541634V33.7126732
					c0-2.4767723,1.8127975-4.5219593,4.1899529-4.8938084c0.258976-0.0464859,0.517952-0.0664253,0.790184-0.0664253h7.8221512
					C63.7891464,28.7524395,65.2632523,30.2265797,65.2632523,32.0526314z"/>
			</g>
		</g>
		<g>
			<g>
				<polygon class="st13" points="60.6151237,28.7524395 54.3839302,32.6499214 54.1343002,28.7524395 				"/>
			</g>
		</g>
		<g>
			<g>
				<path class="st19" d="M65.264679,41.4071083v11.6893463H49.1547737v-5.1178131
					c1.9655037-0.2744255,3.9236259-0.6452827,5.859478-1.1051369c1.5576172-0.3708572,3.1522636-0.8307114,4.4131813-1.8245773
					c0.72686-0.5711288,1.2905655-1.3499146,1.6021156-2.2251282c0.2225037-0.6379051,0.3189316-1.4537659,0.8677864-1.9210472
					C62.7576981,40.1684685,64.1669693,40.7247505,65.264679,41.4071083z"/>
			</g>
		</g>
		<g>
			<g>
				<g>
					<rect x="49.1547737" y="51.653656" width="16.1099052" height="1.6440316"/>
				</g>
			</g>
		</g>
		<g>
			<g>
				<path class="st10" d="M65.9406891,50.3083458V32.1241646c0-1.8633327-2.0968246-3.370636-3.9676971-3.370636h-0.785202
					v21.5548172H65.9406891z"/>
			</g>
		</g>
		<g>
			<g>
				<path class="st19" d="M61.1877975,34.2123756v14.8652077c0,0.1508675-0.122303,0.2731667-0.2731705,0.2731667l0,0
					c-0.1508675,0-0.2731667-0.1222992-0.2731667-0.2731667V34.2123756c0-0.1508675,0.1222992-0.2731705,0.2731667-0.2731705l0,0
					C61.0654945,33.9392052,61.1877975,34.0615082,61.1877975,34.2123756z"/>
			</g>
		</g>
		<g>
			<g>
				<path class="st19" d="M49.1541634,36.0035439v5.5378876c-0.1726112,0.1527519-0.3585548,0.2921715-0.5511055,0.3984375
					v-5.9363251c0-0.1461029,0.1261635-0.2722702,0.2788773-0.2722702
					C49.0346451,35.7312737,49.1541634,35.8574409,49.1541634,36.0035439z"/>
			</g>
		</g>
		<g>
			<g>
				<g>
					<path class="st13" d="M55.8019371,51.4261627v2.0984001c0,0.1394196-0.112915,0.2522507-0.2523308,0.2522507h-3.7450714
						c-0.1394615,0-0.2523308-0.1128311-0.2523308-0.2522507v-2.0984001c0-0.1394196,0.1128693-0.2522507,0.2523308-0.2522507
						h3.7450714C55.6890221,51.173912,55.8019371,51.2867432,55.8019371,51.4261627z"/>
				</g>
			</g>
		</g>
		<g>
			<g>
				<g>
					<rect x="54.6721535" y="23.5332661" class="st0" width="4.927043" height="5.219172"/>
				</g>
			</g>
			<g>
				<g>
					<path class="st4" d="M59.3734131,23.5332661c-0.059742,2.3705502-2.0053482,4.2762794-4.3957977,4.2762794
						c-0.1062241,0-0.2058449-0.0066471-0.3054619-0.0132942v-4.2629852H59.3734131z"/>
				</g>
			</g>
			<g>
				<g>
					<polygon class="st0" points="59.5991974,28.7524395 54.9445992,31.3941326 54.6721535,28.7524395 					"/>
				</g>
			</g>
		</g>
		<g>
			<g>
				<g>
					<path class="st1" d="M50.550724,16.1031513l-0.0973511,3.5809765c-0.012001,0.4413166,0.1580696,0.8681355,0.4702873,1.1802654
						v0.0000019l1.6383667-2.9996529v-1.761591H50.550724z"/>
				</g>
			</g>
			<g>
				<g>
					<path class="st0" d="M50.870327,19.9049129v3.0309658c0,2.4318142,1.9677505,4.4054451,4.4054451,4.4054451
						c2.431778,0,4.4054451-1.9736309,4.4054451-4.4054451v-3.0309658c0-2.4317436-1.9736671-4.4054461-4.4054451-4.4054461
						c-1.2159081,0-2.3202095,0.4934616-3.1190529,1.2923079C51.3637161,17.59062,50.870327,18.6890411,50.870327,19.9049129z"/>
				</g>
			</g>
			<g>
				<g>
					<ellipse class="st1" cx="55.4869804" cy="21.4841995" rx="0.4111206" ry="0.6651398"/>
				</g>
			</g>
			<g>
				<g>
					<ellipse class="st1" cx="52.562027" cy="21.4841995" rx="0.4111206" ry="0.6651398"/>
				</g>
			</g>
			<g>
				<g>
					<path class="st7" d="M55.766922,23.8488808c0.0010414,0.0242882,0.0072327,0.0470886,0.0072327,0.071619
						c0,0.9229202-0.7481613,1.6710835-1.6710472,1.6710835c-0.9229202,0-1.6710815-0.7481632-1.6710815-1.6710835
						c0-0.0245304,0.0061913-0.0473309,0.0072289-0.071619H55.766922z"/>
				</g>
			</g>
			<g>
				<g>
					<path class="st1" d="M60.9649315,21.8106766c0,0,1.2500534-1.60499,1.2118073-4.511734
						c-0.0405006-3.0779591-0.8793945-3.5955181-3.4704056-4.4493742c0,0-0.9022713-1.0690937-3.2193527-0.9513206
						c-2.3170776,0.1177731-3.6822433,1.6812878-5.8021622,1.7107315c0,0-0.0294418,1.2752619,0.7066422,1.4519215
						c0,0-0.2355461,0.9127436-1.2366219,0.61831c0,0-0.1144104,4.5422401,8.9920692,1.8064022
						c0,0-0.3238754,1.1348457,0.9127426,1.7531567l-0.0109062,1.8023586
						c-0.0020905,0.3451805,0.2878761,0.6203365,0.632473,0.600172l0,0l0.0026169-0.8772888L60.9649315,21.8106766z"/>
				</g>
			</g>
			<g>
				<g>
					<path class="st0" d="M59.6494217,20.7295971c0.7602959,0.0038147,1.3756828,0.620615,1.3756828,1.3818283
						c0,0.7611427-0.615387,1.3780117-1.3756828,1.3816853V20.7295971z"/>
				</g>
			</g>
		</g>
		<g>
			<g>
				<path class="st0" d="M65.9998779,53.636692c0.0115585,1.0968056-0.8139191,2.0204048-1.9049377,2.1358604
					c-1.194931,0.1212387-2.2570648-0.7792816-2.3321114-1.9799881l-0.1789474-1.378727l-0.5137711,0.3521194
					c-0.2886276,0.1962814-0.6696358,0.1731682-0.9236336-0.0577126c-0.1673889-0.1500931-0.2597351-0.357933-0.2597351-0.5715141
					c0-0.1673927,0.0577087-0.3347855,0.1731682-0.47332l1.1256599-1.3565788h4.7565994L65.9998779,53.636692z"/>
			</g>
		</g>
	</g>
	<g>
		<g>
			<g>
				<g>
					<path class="st5" d="M25.8737259,64.5516129h16.7880859c0.6797752,0,1.1895866-0.6190529,1.0621529-1.2867126
						l-2.7737389-16.5104713c-0.0971298-0.5098495-0.5401878-0.8740005-1.056076-0.8740005H28.6413879
						c-0.5158882,0-0.9589443,0.364151-1.056076,0.8740005L24.811573,63.2649002
						C24.6841393,63.93256,25.1939507,64.5516129,25.8737259,64.5516129z"/>
				</g>
			</g>
			<g>
				<g>
					<g>
						<path class="st7" d="M29.7422237,47.7608185c0,0.3626175,0.3003979,0.6630135,0.6630116,0.6630135
							c0.372921,0,0.6630116-0.300396,0.6630116-0.6630135c0-0.3625488-0.2900906-0.6629448-0.6630116-0.6629448
							C30.0426216,47.0978737,29.7422237,47.3982697,29.7422237,47.7608185z"/>
					</g>
				</g>
				<g>
					<g>
						<path class="st7" d="M37.467289,47.7608185c0,0.3626175,0.3003998,0.6630135,0.6630135,0.6630135
							c0.372921,0,0.6630096-0.300396,0.6630096-0.6630135c0-0.3625488-0.2900887-0.6629448-0.6630096-0.6629448
							C37.7676888,47.0978737,37.467289,47.3982697,37.467289,47.7608185z"/>
					</g>
				</g>
			</g>
			<g>
				<g>
					<g>
						<path class="st18" d="M30.4053555,48.0641518c0.167738,0,0.3034706-0.1357346,0.3034706-0.3034744v-1.7194748
							c0-1.9624901,1.596487-3.5586815,3.5589809-3.5586815c1.9624901,0,3.558979,1.5961914,3.558979,3.5586815v1.7194748
							c0,0.1677399,0.1357307,0.3034744,0.3034706,0.3034744s0.3034706-0.1357346,0.3034706-0.3034744v-1.7194748
							c0-2.2967834-1.8688393-4.1656265-4.1659203-4.1656265s-4.1659241,1.8688431-4.1659241,4.1656265v1.7194748
							C30.1018829,47.9284172,30.2376156,48.0641518,30.4053555,48.0641518z"/>
					</g>
				</g>
			</g>
		</g>
		<g>
			<g>
				<g>
					<g>
						<path class="st12" d="M47.5148926,43.0117455l-0.6295662,6.1548271l-0.1409798,1.4095306l-0.3195076,3.1103096
							l-0.1409111,1.4095001l-0.2818871,2.7062607l-0.140976,1.4095001l-0.2255173,2.2270241l-0.1503983,1.4095306
							l-0.1691132,1.7101974l-0.1429405,1.3401413h-1.4099579l0.133976-1.3401413l0.1785355-1.7101974l0.140976-1.4095306
							l0.2255173-2.2270241l0.1503639-1.4095001l0.2724991-2.7062607l0.140976-1.4095001l0.3194427-3.1103096l0.1504021-1.4095306
							l0.6389542-6.2958031c0.1033516-1.0054512,0.9020653-1.8041611,1.8887024-1.9075127l3.2512856-0.3570709
							c0.3853035-0.0376244,0.7423096,0.2443275,0.7799339,0.6295662c0.0375595,0.3853035-0.2349052,0.7329521-0.6295662,0.7799339
							l-3.2418633,0.3476791C47.8249817,42.4009247,47.5524521,42.6734886,47.5148926,43.0117455z"/>
					</g>
				</g>
			</g>
			<g>
				<g>
					<g>
						<path class="st12" d="M20.6684322,50.2190018c0.5262146-0.6671257,1.3061485-1.0524292,2.161232-1.0524292h24.0556622
							l-0.1409798,1.4095306H22.8296642c-0.4134407,0-0.7892895,0.1785355-1.0430088,0.5074043
							c-0.2537498,0.3195114-0.3382893,0.7329521-0.2349377,1.137001l0.3758488,1.4659042l0.3664932,1.4095001l0.7047501,2.7062607
							l0.3664913,1.4095001l0.573164,2.2270241l0.3664913,1.4095306l0.4416103,1.7101974h20.5694695l-0.1429405,1.3401413
							H23.9105568c-0.1894951-0.0856857-0.3375053-0.2462921-0.3949547-0.4568558l-2.8190002-10.9095726l-0.5074043-1.9639473
							C19.9730721,51.7506981,20.1516399,50.8956146,20.6684322,50.2190018z"/>
					</g>
				</g>
			</g>
			<g>
				<g>
					<g>
						<g>
							<g>
								<path class="st12" d="M40.8104897,65.8985672h-0.5994987c-0.2451134-0.1176758-0.4105301-0.3714294-0.399601-0.6607437
									l0.5799675-15.3963089c0.0137405-0.3890991,0.3340034-0.6946716,0.7304344-0.6772346
									c0.3890991,0.0146904,0.691925,0.3413658,0.6772346,0.7304649l-0.5799713,15.3963089
									C41.2091751,65.5640411,41.041832,65.7902756,40.8104897,65.8985672z"/>
							</g>
						</g>
					</g>
					<g>
						<g>
							<g>
								<path class="st12" d="M35.4918365,65.8985672h-0.5997276c-0.2271194-0.1059341-0.3937454-0.3251038-0.4095154-0.5928268
									l-0.9084435-15.3963051c-0.0229683-0.3881836,0.2734451-0.7222214,0.6625137-0.7451553
									c0.3487244-0.0183525,0.7222176,0.2734795,0.7451553,0.6625481l0.908474,15.3963089
									C35.9076347,65.5167007,35.7417603,65.7781067,35.4918365,65.8985672z"/>
							</g>
						</g>
					</g>
					<g>
						<g>
							<g>
								<path class="st12" d="M30.1358871,65.8985672h-0.5681896c-0.2072277-0.0955276-0.3678989-0.2835541-0.4056225-0.525856
									l-2.3978043-15.3963051c-0.0596428-0.3844872,0.2036934-0.745121,0.588213-0.8047638
									c0.3863182-0.0568962,0.7451229,0.2046089,0.8047638,0.5882149l2.3978062,15.3963089
									C30.6051102,65.4787521,30.4214058,65.773262,30.1358871,65.8985672z"/>
							</g>
						</g>
					</g>
				</g>
				<g>
					<g>
						<g>
							<g>
								<path class="st12" d="M20.6872463,54.3911705c0,0.0469704,0.0093479,0.0940018,0.0093479,0.1409721
									c0.0657845,0.319458,0.3477325,0.5637817,0.695406,0.5637817h24.8919163l0.1409187-1.4095078h-25.032835
									C20.9972973,53.6864166,20.6872463,53.9965248,20.6872463,54.3911705z"/>
							</g>
						</g>
					</g>
					<g>
						<g>
							<g>
								<path class="st12" d="M21.7490807,58.5069389c0,0.3946495,0.3194561,0.7047577,0.7047539,0.7047577h23.4072189
									l0.140976-1.4095116H22.4538345C22.0685368,57.8021851,21.7490807,58.1217003,21.7490807,58.5069389z"/>
							</g>
						</g>
					</g>
					<g>
						<g>
							<g>
								<path class="st12" d="M22.6887531,62.1434708c0,0.3946457,0.3194561,0.7047539,0.7047539,0.7047539h22.0916538
									l0.1503792-1.4095116H23.393507C23.0082092,61.4387131,22.6887531,61.7582283,22.6887531,62.1434708z"/>
							</g>
						</g>
					</g>
				</g>
			</g>
		</g>
	</g>
	<g>
		<g>
			<g>
				<path class="st5" d="M29.8506432,24.069231h-3.6148586c-0.6567078,0-1.1890736-0.5323677-1.1890736-1.1890755v-10.264842
					c0-0.6567078,0.5323658-1.1890745,1.1890736-1.1890745h3.6148586c0.6567078,0,1.1890755,0.5323668,1.1890755,1.1890745
					v10.264842C31.0397186,23.5368633,30.5073509,24.069231,29.8506432,24.069231z"/>
			</g>
		</g>
		<g>
			<g>
				<rect x="27.1053791" y="10.1160841" class="st5" width="1.8756701" height="1.7731011"/>
			</g>
		</g>
		<g>
			<g>
				<path class="st18" d="M29.5906525,9.3819485v0.9256344c0,0.1881409-0.1504745,0.3386154-0.3311291,0.3386154h-2.4307556
					c-0.188139,0-0.3386612-0.1504745-0.3386612-0.3386154V9.3819485c0-0.1881399,0.1505222-0.338707,0.3386612-0.338707h2.4307556
					C29.4401779,9.0432415,29.5906525,9.1938086,29.5906525,9.3819485z"/>
			</g>
		</g>
		<g>
			<g>
				<rect x="25.046711" y="15.5354805" class="st3" width="5.9930077" height="3.9215016"/>
			</g>
		</g>
	</g>
	<g>
		<g>
			<g>
				<path class="st5" d="M21.1246643,24.069231h-3.6148586c-0.6567078,0-1.1890755-0.5323677-1.1890755-1.1890755v-10.264842
					c0-0.6567078,0.5323677-1.1890745,1.1890755-1.1890745h3.6148586c0.6567078,0,1.1890736,0.5323668,1.1890736,1.1890745
					v10.264842C22.3137379,23.5368633,21.7813721,24.069231,21.1246643,24.069231z"/>
			</g>
		</g>
		<g>
			<g>
				<rect x="18.3794003" y="10.1160841" class="st5" width="1.8756701" height="1.7731011"/>
			</g>
		</g>
		<g>
			<g>
				<path class="st18" d="M20.8646736,9.3819485v0.9256344c0,0.1881409-0.1504765,0.3386154-0.3311291,0.3386154h-2.4307556
					c-0.1881409,0-0.3386612-0.1504745-0.3386612-0.3386154V9.3819485c0-0.1881399,0.1505203-0.338707,0.3386612-0.338707h2.4307556
					C20.7141972,9.0432415,20.8646736,9.1938086,20.8646736,9.3819485z"/>
			</g>
		</g>
		<g>
			<g>
				<rect x="16.3207302" y="15.5354805" class="st3" width="5.9930077" height="3.9215016"/>
			</g>
		</g>
	</g>
	<g>
		<g>
			<g>
				<path class="st5" d="M12.3986835,24.069231H8.7838249c-0.6567078,0-1.189074-0.5323677-1.189074-1.1890755v-10.264842
					c0-0.6567078,0.5323663-1.1890745,1.189074-1.1890745h3.6148586c0.6567078,0,1.1890745,0.5323668,1.1890745,1.1890745v10.264842
					C13.5877581,23.5368633,13.0553913,24.069231,12.3986835,24.069231z"/>
			</g>
		</g>
		<g>
			<g>
				<rect x="9.6534195" y="10.1160841" class="st5" width="1.8756701" height="1.7731011"/>
			</g>
		</g>
		<g>
			<g>
				<path class="st18" d="M12.1386929,9.3819485v0.9256344c0,0.1881409-0.1504755,0.3386154-0.3311281,0.3386154H9.3768091
					c-0.1881409,0-0.3386621-0.1504745-0.3386621-0.3386154V9.3819485c0-0.1881399,0.1505213-0.338707,0.3386621-0.338707h2.4307556
					C11.9882174,9.0432415,12.1386929,9.1938086,12.1386929,9.3819485z"/>
			</g>
		</g>
		<g>
			<g>
				<rect x="7.5947509" y="15.5354805" class="st3" width="5.9930077" height="3.9215016"/>
			</g>
		</g>
	</g>
	<g>
		<g>
			<path class="st5" d="M28.2979145,41.4079056c0,1.0668373-0.8668098,1.9270134-1.9336872,1.9270134
				c-1.0601616,0-1.9270115-0.8601761-1.9270115-1.9270134s0.8668499-1.9336853,1.9270115-1.9336853
				C27.4311047,39.4742203,28.2979145,40.3410683,28.2979145,41.4079056z"/>
		</g>
	</g>
	<g>
		<g>
			<path class="st2" d="M20.3069248,46.132225h-3.5863361c-0.7569933,0-1.370657-0.6136665-1.370657-1.3706589v-6.3759384
				c0-0.7569923,0.6136637-1.3706551,1.370657-1.3706551h3.5863361c0.7569923,0,1.3706551,0.6136627,1.3706551,1.3706551v6.3759384
				C21.6775799,45.5185585,21.0639172,46.132225,20.3069248,46.132225z"/>
		</g>
	</g>
	<g>
		<g>
			<path class="st5" d="M20.4450645,41.4079056c0,1.0668373-0.8668098,1.9270134-1.9336872,1.9270134
				c-1.0601616,0-1.9270115-0.8601761-1.9270115-1.9270134s0.8668499-1.9336853,1.9270115-1.9336853
				C19.5782547,39.4742203,20.4450645,40.3410683,20.4450645,41.4079056z"/>
		</g>
	</g>
	<g>
		<g>
			<path class="st2" d="M12.4540739,46.132225H8.8677378c-0.7569933,0-1.370657-0.6136665-1.370657-1.3706589v-6.3759384
				c0-0.7569923,0.6136637-1.3706551,1.370657-1.3706551h3.5863361c0.7569923,0,1.370656,0.6136627,1.370656,1.3706551v6.3759384
				C13.8247299,45.5185585,13.2110662,46.132225,12.4540739,46.132225z"/>
		</g>
	</g>
	<g>
		<g>
			<path class="st5" d="M12.5922136,41.4079056c0,1.0668373-0.8668098,1.9270134-1.9336863,1.9270134
				c-1.0601625,0-1.9270124-0.8601761-1.9270124-1.9270134s0.8668499-1.9336853,1.9270124-1.9336853
				C11.7254038,39.4742203,12.5922136,40.3410683,12.5922136,41.4079056z"/>
		</g>
	</g>
	<g>
		<g>
			<path class="st0" d="M38.172966,37.5005684v4.927536l-3.9873466-0.5600739
				c-0.9268379-0.1267319-1.6469765-0.8868752-1.720314-1.8269806c-0.0066719-0.0533943-0.0066719-0.1000328-0.0066719-0.153347
				c0-1.1002884,0.8935051-2.0070229,2.0070229-2.0070229h2.3603935l-0.4400558-0.4134827
				c-0.2800789-0.2532997-0.3134117-0.68013-0.0800133-0.9801521c0.1466751-0.186718,0.3600502-0.2733231,0.5667496-0.2733231
				c0.2267265,0,0.4467354,0.0999527,0.5934486,0.3000221L38.172966,37.5005684z"/>
		</g>
	</g>
</g>
</svg>