<svg xmlns="http://www.w3.org/2000/svg"  viewBox="0 0 128 128" width="128px" height="128px"><path fill="#f0e402" d="M4,124V14C4,8.5,8.5,4,14,4h100c5.5,0,10,4.5,10,10v110H4z"/><path fill="#b5a809" d="M58,127c-1.7,0-3-1.3-3-3V49c0-1.7,1.3-3,3-3s3,1.3,3,3v75C61,125.7,59.7,127,58,127z"/><path fill="#b5a809" d="M118,127c-1.7,0-3-1.3-3-3V49c0-1.7,1.3-3,3-3s3,1.3,3,3v75C121,125.7,119.7,127,118,127z"/><path fill="#444b54" d="M50,27H18c-1.7,0-3-1.3-3-3s1.3-3,3-3h32c1.7,0,3,1.3,3,3S51.7,27,50,27z"/><path fill="#444b54" d="M50,41H18c-1.7,0-3-1.3-3-3s1.3-3,3-3h32c1.7,0,3,1.3,3,3S51.7,41,50,41z"/><path fill="#444b54" d="M110,27H78c-1.7,0-3-1.3-3-3s1.3-3,3-3h32c1.7,0,3,1.3,3,3S111.7,27,110,27z"/><path fill="#444b54" d="M110,41H78c-1.7,0-3-1.3-3-3s1.3-3,3-3h32c1.7,0,3,1.3,3,3S111.7,41,110,41z"/><path fill="#444b54" d="M114,1H14C6.8,1,1,6.8,1,14v110c0,1.7,1.3,3,3,3s3-1.3,3-3V14c0-3.9,3.1-7,7-7h47v117c0,1.7,1.3,3,3,3 s3-1.3,3-3V7h47c3.9,0,7,3.1,7,7v110c0,1.7,1.3,3,3,3s3-1.3,3-3V14C127,6.8,121.2,1,114,1z"/><path fill="#444b54" d="M50,72c-1.7,0-3-1.3-3-3V59c0-1.7,1.3-3,3-3s3,1.3,3,3v10C53,70.7,51.7,72,50,72z"/><path fill="#444b54" d="M110,72c-1.7,0-3-1.3-3-3V59c0-1.7,1.3-3,3-3s3,1.3,3,3v10C113,70.7,111.7,72,110,72z"/></svg>