<svg xmlns="http://www.w3.org/2000/svg"  viewBox="0 0 48 48" width="144px" height="144px"><path fill="#ff8f00" d="M42,32.5C42,26.1,36.6,21,30,21c-6.6,0-12,5.1-12,11.5S23.4,44,30,44C36.6,44,42,38.9,42,32.5z"/><path fill="#ef6c00" d="M35 35c0 .6-.4 1-1 1-.6 0-1-.4-1-1s.4-1 1-1C34.6 34 35 34.4 35 35zM37 38c0 .6-.4 1-1 1-.6 0-1-.4-1-1s.4-1 1-1C36.6 37 37 37.4 37 38zM39 35c0 .6-.4 1-1 1-.6 0-1-.4-1-1s.4-1 1-1C38.6 34 39 34.4 39 35zM30 21c-.8 0-1.7.1-2.5.3-.6 10.9-1.7 17.8-2.2 21.1 0 .2-.1.5-.2.6.7.3 1.3.5 2.1.7 1.1-3.5 1.9-7.7 2.7-12.9.5-3.3 2.8-6 5.9-7.1.1-.1.9-.2 1.5-.4C35.2 21.9 32.7 21 30 21z"/><path fill="#4caf50" d="M30,23.1c0,0,9.6,0.7,12-9.1C30.3,14,30,23.1,30,23.1z"/><path fill="#5d4037" d="M29 19H31V23.1H29z"/><path fill="#bbdefb" d="M6,4c0,21.2,2,33.6,2.7,38.3c0.2,1,1,1.7,2,1.7h12.6c1,0,1.8-0.7,2-1.7C26,37.6,28,25.2,28,4H6z"/><path fill="#fff" d="M8.2,12H11c0-0.7,0-1.3,0-2c0-1.3,0-2.6,0-4H8c0,1.4,0,2.7,0.1,4C8.1,10.7,8.1,11.3,8.2,12z"/><path fill="#ffb300" d="M27.9,12H6.1c0.3,12.4,1.3,21.1,2,26.4c0-0.1,0-0.2,0-0.4c0,0.2,0.1,0.4,0.1,0.6 C8.4,39.4,9.1,40,10,40h14c0.9,0,1.6-0.6,1.8-1.4c0-0.2,0.1-0.4,0.1-0.6c0,0.1,0,0.2,0,0.4C26.6,33.1,27.6,24.4,27.9,12z"/><path fill="#ffe082" d="M8.2,12c0.4,13.3,1.5,22.9,2.2,28H11c0-9.3,0.1-17.1,0-28H8.2z"/></svg>