<svg xmlns="http://www.w3.org/2000/svg"  viewBox="0 0 50 50" width="150px" height="150px"><path fill="#ff9600" d="M5,3.557C3.638,4.262,2.61,5.487,2.092,6.924c-0.569,1.577-0.362,3.365,0.412,4.832 c0.252,0.477,0.917,0.623,1.368,0.359c0.484-0.283,0.612-0.889,0.359-1.368c-0.239-0.452-0.423-1.091-0.453-1.562 C3.736,8.523,3.795,8.079,4.02,7.455c0.023-0.064,0.046-0.128,0.073-0.191C4.051,7.363,4.097,7.263,4.118,7.223 c0.063-0.121,0.124-0.243,0.193-0.36c0.078-0.132,0.163-0.26,0.252-0.385c0.098-0.138-0.076,0.09,0.03-0.041 C4.636,6.383,4.68,6.332,4.726,6.28c0.191-0.216,0.401-0.421,0.628-0.6C5.272,5.745,5.363,5.675,5.397,5.653 c0.071-0.047,0.141-0.096,0.213-0.142c0.13-0.082,0.264-0.156,0.4-0.227c0.48-0.248,0.621-0.919,0.359-1.368 C6.084,3.429,5.482,3.308,5,3.557L5,3.557z"/><path fill="#ff9600" d="M6.55,9.579c1.287,0,1.289-2,0-2C5.263,7.579,5.26,9.579,6.55,9.579L6.55,9.579z"/><path fill="#99c93c" d="M48.544,32.572c0.133-2.39-1.78-4.505-3.277-6.133c-0.873-0.95-2.284,0.467-1.414,1.414	c1.069,1.163,2.237,2.413,2.61,3.995c0.028,0.119,0.026,0.256,0.023,0.389c-0.345-0.545-0.749-1.052-1.22-1.494	c-0.345-0.324-0.747-0.717-1.214-0.834c-0.578-0.145-1.153,0.145-1.371,0.696c-0.419,1.06,0.718,1.946,1.434,2.526	c0.303,0.246,0.657,0.539,1.037,0.798c0.009,0.018,0.02,0.034,0.029,0.052c0.215,0.448,0.361,0.927,0.461,1.413	c0.036,0.176,0.052,0.353,0.068,0.531c-0.368-0.312-0.758-0.6-1.148-0.866c-0.998-0.68-1.895,0.755-1.212,1.571	c0.431,0.514,1.035,1.077,1.702,1.405c0.124,0.145,0.241,0.295,0.34,0.46c0.164,0.272,0.413,0.939,0.356,1.428	c-0.121-0.104-0.248-0.2-0.392-0.267c-0.489-0.229-1.078-0.137-1.368,0.359c-0.253,0.433-0.133,1.138,0.359,1.368	c0.293,0.137,0.468,0.48,0.749,0.661c0.419,0.27,0.936,0.327,1.389,0.096c0.862-0.44,1.23-1.551,1.245-2.462	c0.012-0.695-0.17-1.312-0.46-1.874c0.343-0.407,0.491-1.004,0.466-1.615c-0.025-0.597-0.127-1.19-0.285-1.767	C48.132,34.108,48.502,33.333,48.544,32.572z"/><path fill="#399bdf" d="M40.429,13.763c-0.187-1.241-0.455-2.468-0.761-3.685c-0.148-0.591-0.305-1.179-0.463-1.768 c-0.133-0.495-0.229-1.052-0.532-1.477c-0.548-0.769-1.778-0.827-2.625-1.015c-1.181-0.263-2.37-0.489-3.573-0.629 c-2.466-0.288-4.975-0.167-7.451-0.132c-2.772,0.04-9.981,0.601-10.394,0.643c-0.082,0.008-0.231-0.005-0.299,0.034 c0.062-0.008,0.124-0.017,0.186-0.025c-0.067,0.01-0.135,0.019-0.202,0.03c-0.205,0.032-0.408,0.069-0.611,0.11 c-0.412,0.084-0.82,0.188-1.222,0.314c-0.218,0.068-0.434,0.143-0.647,0.225c-0.029,0.011-0.193,0.081-0.222,0.092 c-0.047,0.022-0.092,0.042-0.105,0.049c-0.387,0.183-0.762,0.392-1.116,0.633c-0.058,0.04-0.177,0.105-0.23,0.163 c-0.011,0.011-0.021,0.024-0.033,0.034c-0.15,0.128-0.294,0.263-0.43,0.406C9.63,7.834,9.564,7.907,9.501,7.981 c-0.069,0.081-0.094,0.1-0.105,0.101c-0.039,0.056-0.081,0.13-0.12,0.203C8.427,15.58,8.398,22.993,8.404,30.314 c0.003,4.308,0.167,8.616,0.213,12.924c0.004,0.392,0.018,0.783,0.029,1.175c1.477,3.217,6.679,3.427,9.798,3.473 c1.108,0.016,2.214,0.036,3.32,0.04c0.58-0.032,1.16-0.07,1.739-0.111c2.248-0.157,4.495-0.319,6.743-0.481 c1.69-0.237,6.262-0.867,6.501-0.944c0.427-0.138,0.83-0.33,1.181-0.589c1.053-0.483,1.918-1.22,2.212-2.499 c0.248-1.081,0.208-2.245,0.256-3.347c0.056-1.279,0.108-2.558,0.155-3.837c0.187-5.043,0.365-10.098,0.35-15.146 C40.894,18.562,40.788,16.149,40.429,13.763z"/><path fill="#231f20" d="M11.568,27.636c9.021-0.534,18.055-0.821,27.091-0.862c0.643-0.003,0.645-1.003,0-1 c-9.036,0.041-18.071,0.328-27.091,0.862C10.929,26.674,10.924,27.674,11.568,27.636L11.568,27.636z"/><path fill="#231f20" d="M12.324,14.135c-0.067,2.261-0.285,4.588,0.176,6.821c0.13,0.63,1.094,0.363,0.964-0.266 c-0.441-2.135-0.204-4.393-0.141-6.555C13.343,13.491,12.343,13.492,12.324,14.135L12.324,14.135z"/><path fill="#231f20" d="M13.17,31.277c-0.144,1.784-0.134,3.576,0.03,5.359c0.025,0.269,0.212,0.5,0.5,0.5 c0.251,0,0.525-0.23,0.5-0.5c-0.164-1.783-0.174-3.575-0.03-5.359c0.022-0.27-0.245-0.5-0.5-0.5 C13.381,30.777,13.192,31.006,13.17,31.277L13.17,31.277z"/><path fill="#fff" d="M17.886,13.175c5.09-0.522,10.21-0.623,15.316-0.303c0.809,0.051,1.5-0.726,1.5-1.5 c0-0.854-0.688-1.449-1.5-1.5c-5.106-0.32-10.226-0.219-15.316,0.303c-0.806,0.083-1.5,0.63-1.5,1.5 C16.386,12.422,17.075,13.258,17.886,13.175L17.886,13.175z"/></svg>