<svg xmlns="http://www.w3.org/2000/svg"  viewBox="0 0 80 80" width="160px" height="160px"><path fill="#5e9c76" d="M6.3 38.4L5.7 37.6 23.9 21.4 39.9 29.4 53.8 13.4 74.1 19.5 73.9 20.5 54.2 14.6 40.1 30.6 24.1 22.6z"/><path fill="#bae0bd" d="M74 16.5A3.5 3.5 0 1 0 74 23.5A3.5 3.5 0 1 0 74 16.5Z"/><path fill="#5e9c76" d="M74,17c1.7,0,3,1.3,3,3s-1.3,3-3,3s-3-1.3-3-3S72.3,17,74,17 M74,16c-2.2,0-4,1.8-4,4s1.8,4,4,4 s4-1.8,4-4S76.2,16,74,16L74,16z"/><path fill="#bae0bd" d="M54 10.5A3.5 3.5 0 1 0 54 17.5A3.5 3.5 0 1 0 54 10.5Z"/><path fill="#5e9c76" d="M54,11c1.7,0,3,1.3,3,3s-1.3,3-3,3s-3-1.3-3-3S52.3,11,54,11 M54,10c-2.2,0-4,1.8-4,4s1.8,4,4,4 s4-1.8,4-4S56.2,10,54,10L54,10z"/><path fill="#bae0bd" d="M40 26.5A3.5 3.5 0 1 0 40 33.5A3.5 3.5 0 1 0 40 26.5Z"/><path fill="#5e9c76" d="M40,27c1.7,0,3,1.3,3,3s-1.3,3-3,3s-3-1.3-3-3S38.3,27,40,27 M40,26c-2.2,0-4,1.8-4,4s1.8,4,4,4 s4-1.8,4-4S42.2,26,40,26L40,26z"/><path fill="#bae0bd" d="M24 18.5A3.5 3.5 0 1 0 24 25.5A3.5 3.5 0 1 0 24 18.5Z"/><path fill="#5e9c76" d="M24,19c1.7,0,3,1.3,3,3s-1.3,3-3,3s-3-1.3-3-3S22.3,19,24,19 M24,18c-2.2,0-4,1.8-4,4s1.8,4,4,4 s4-1.8,4-4S26.2,18,24,18L24,18z"/><path fill="#bae0bd" d="M6 34.5A3.5 3.5 0 1 0 6 41.5A3.5 3.5 0 1 0 6 34.5Z"/><path fill="#5e9c76" d="M6,35c1.7,0,3,1.3,3,3s-1.3,3-3,3s-3-1.3-3-3S4.3,35,6,35 M6,34c-2.2,0-4,1.8-4,4s1.8,4,4,4 s4-1.8,4-4S8.2,34,6,34L6,34z"/><path fill="#4e7ab5" d="M6.3 66.4L5.7 65.6 23.9 49.4 39.9 57.4 55.9 45.5 73.9 41.5 74.1 42.5 56.2 46.5 40.1 58.6 24.1 50.6z"/><g><path fill="#8bb7f0" d="M74 38.5A3.5 3.5 0 1 0 74 45.5A3.5 3.5 0 1 0 74 38.5Z"/><path fill="#4e7ab5" d="M74,39c1.7,0,3,1.3,3,3s-1.3,3-3,3s-3-1.3-3-3S72.3,39,74,39 M74,38c-2.2,0-4,1.8-4,4s1.8,4,4,4 s4-1.8,4-4S76.2,38,74,38L74,38z"/></g><g><path fill="#8bb7f0" d="M56 42.5A3.5 3.5 0 1 0 56 49.5A3.5 3.5 0 1 0 56 42.5Z"/><path fill="#4e7ab5" d="M56,43c1.7,0,3,1.3,3,3s-1.3,3-3,3s-3-1.3-3-3S54.3,43,56,43 M56,42c-2.2,0-4,1.8-4,4s1.8,4,4,4 s4-1.8,4-4S58.2,42,56,42L56,42z"/></g><g><path fill="#8bb7f0" d="M40 54.5A3.5 3.5 0 1 0 40 61.5A3.5 3.5 0 1 0 40 54.5Z"/><path fill="#4e7ab5" d="M40,55c1.7,0,3,1.3,3,3s-1.3,3-3,3s-3-1.3-3-3S38.3,55,40,55 M40,54c-2.2,0-4,1.8-4,4s1.8,4,4,4 s4-1.8,4-4S42.2,54,40,54L40,54z"/></g><g><path fill="#8bb7f0" d="M24 46.5A3.5 3.5 0 1 0 24 53.5A3.5 3.5 0 1 0 24 46.5Z"/><path fill="#4e7ab5" d="M24,47c1.7,0,3,1.3,3,3s-1.3,3-3,3s-3-1.3-3-3S22.3,47,24,47 M24,46c-2.2,0-4,1.8-4,4s1.8,4,4,4 s4-1.8,4-4S26.2,46,24,46L24,46z"/></g><g><path fill="#8bb7f0" d="M6 62.5A3.5 3.5 0 1 0 6 69.5A3.5 3.5 0 1 0 6 62.5Z"/><path fill="#4e7ab5" d="M6,63c1.7,0,3,1.3,3,3s-1.3,3-3,3s-3-1.3-3-3S4.3,63,6,63 M6,62c-2.2,0-4,1.8-4,4s1.8,4,4,4 s4-1.8,4-4S8.2,62,6,62L6,62z"/></g></svg>