<svg xmlns="http://www.w3.org/2000/svg" xmlns:xlink="http://www.w3.org/1999/xlink" viewBox="0,0,256,256" width="192px" height="192px" fill-rule="nonzero"><g fill="none" fill-rule="nonzero" stroke="none" stroke-width="1" stroke-linecap="butt" stroke-linejoin="miter" stroke-miterlimit="10" stroke-dasharray="" stroke-dashoffset="0" font-family="none" font-size="none" text-anchor="none" style="mix-blend-mode: normal"><g transform="scale(5.33333,5.33333)"><circle cx="19" cy="19" r="17" fill="#e1eb6c"></circle><path d="M40.993,44.965c-0.897,0 -1.794,-0.342 -2.477,-1.024l-10.723,-10.734c-0.391,-0.391 -0.391,-1.024 0,-1.414c0.391,-0.391 1.023,-0.391 1.414,0l10.724,10.733c0.586,0.586 1.537,0.586 2.121,0.002l0.47,-0.469c0.284,-0.283 0.44,-0.66 0.44,-1.061c0,-0.401 -0.155,-0.778 -0.439,-1.062l-10.73,-10.729c-0.391,-0.391 -0.391,-1.023 0,-1.414c0.391,-0.391 1.023,-0.391 1.414,0l10.729,10.729c0.662,0.662 1.026,1.542 1.025,2.478c-0.001,0.937 -0.366,1.815 -1.028,2.476l-0.47,0.469c-0.681,0.679 -1.575,1.02 -2.47,1.02z" fill="#324561"></path><path d="M24,25c-0.256,0 -0.512,-0.098 -0.707,-0.293l-10,-10c-0.391,-0.391 -0.391,-1.023 0,-1.414c0.391,-0.391 1.023,-0.391 1.414,0l10,10c0.391,0.391 0.391,1.023 0,1.414c-0.195,0.195 -0.451,0.293 -0.707,0.293z" fill="#324561"></path><path d="M14,25c-0.256,0 -0.512,-0.098 -0.707,-0.293c-0.391,-0.391 -0.391,-1.023 0,-1.414l10,-10c0.391,-0.391 1.023,-0.391 1.414,0c0.391,0.391 0.391,1.023 0,1.414l-10,10c-0.195,0.195 -0.451,0.293 -0.707,0.293z" fill="#324561"></path></g></g></svg>

