<svg xmlns="http://www.w3.org/2000/svg"  viewBox="0 0 512 512" width="192px" height="192px"><path fill="#BCBCBC" d="M355.7,86c-5.2-7.3-12.2-13.1-18.1-19.8c-0.6-0.6-1.1-1.3-1.7-1.9c1.4,8.3,3.1,16.5,3.1,24.9c0,10.5-0.9,20.9-3.7,30.9c3.1,0.4,6.3,0.4,9.3,0.6c7.9,0.5,15.7,1,23.5,1.7c2.8,0.3,8.2,0.5,13.6,1.4C373.5,110.9,364.5,98.5,355.7,86z"/><path fill="#D6E5E5" d="M394.6,304.8c-0.6-6.9-1.6-13.8-1.9-20.7c-0.6-16.2,0.9-32.4,0.5-48.6c-0.3-15.8-1.5-31.7-2.2-47.5c-0.7-15.7-1.4-31.2-3.5-46.8c-0.1-1-0.2-1.9-0.4-2.9c-0.2-0.4-0.4-0.9-0.4-1.4c-0.4-0.2-1-0.5-1.2-0.5c-1.1-0.4-4.4-1.1-6.3-1.5c-6.5-1.1-13-1.7-19.6-2.2c-6.7-0.5-13.3-0.9-20-1.4c-4.1-0.3-8.6-0.4-12.6-1.6c-3.7-1.1-5.2-4.2-3.9-7.8c3.2-8.7,4.6-18.2,4.8-27.6c-2,2.6-5,2.1-7,0.3c-0.2,0-0.4,0-0.7,0c-1.1,0-2.2,0.1-3.2,0.1c-2.7,0.1-5.3,0.1-8,0.3c-8.1,0.6-16.1,0.7-24.2,0.9c-16.2,0.3-32.4,1-48.5,1.8c-33.3,1.8-66.5,4-99.8,4.1c-7.1,0-7.9-11-0.8-11c37.9-0.1,75.6-3,113.4-4.8c18.5-0.9,37.2-0.2,55.6-1.7c6-0.5,12.3-1,18.3-0.6c2,0.1,3.7,0.9,4.8,1.9c0-0.2,0-0.4,0-0.6c-0.6-11.6-4-22.8-4.9-34.3c-2.4,0-4.9,0.1-7.3,0.1c-25.8,0-51.6,0.1-77.4,0.3c-50.2,0.3-100.4,0.7-150.6,0.7c0,0.3,0,0.6,0,0.9c0.4,32.2,2.7,64.3,1.3,96.5c-0.7,16.2-1.6,32.5-0.6,48.8c1,16.3,2.1,32.5,2.5,48.8c0.3,16,0.4,32.1-0.9,48.1c-1.2,16-2.3,32-2.1,48.1c0.4,30.4,6.2,60.3,6.8,90.7c26-0.9,52,0.6,78,1.8c27.2,1.3,54.3,1.4,81.6,1.1c1.3,0,2.7,0,4-0.1c-3.4-10.8-3.6-22.8-2.1-34.2c-1.6,0.1-3.2,0.1-4.9,0.2c-18.3,0.6-36.6-0.4-54.9-0.7c-17.5-0.2-34.8,2.9-52.3,1.9c-7.1-0.4-4.9-11.2,2.1-10.8c9.5,0.6,19.1-0.7,28.5-1.4c8.9-0.7,17.7-0.7,26.5-0.5c17.7,0.4,35.3,1.2,53,0.4c1.3-0.1,2.5-0.1,3.8-0.2c0.1-0.3,0.1-0.5,0.2-0.8c4.4-19.5,12-37.7,26.7-51.4c-19.3,1.3-38.6,3.2-57.9,4.5c-18,1.2-36.6,2.2-54.6,0.9c-5.9-0.4-11.9-1.1-17.8-1.2c-3.8-0.1-10.5-0.9-13.3,1.5c-5.4,4.6-11.4-4.5-6.2-9.1c3.8-3.3,10.3-3.4,15.1-3.4c6.8,0,13.6,0.6,20.4,1.1c17.7,1.4,36,0.5,53.7-0.7c21.4-1.5,42.8-3.7,64.3-4.9c0.2,0,0.4,0,0.6,0c3.9-1.4,9-1.4,12.5-1.4c0.2,0,0.4,0,0.6,0c15.1-9,32.2-14.9,49.2-18.1c14.1-2.6,29.1-3.8,43.2-0.9c0-0.7,0-1.4,0-2.2C394.5,305.2,394.5,305,394.6,304.8z M348.6,186.9c-33.9,0-67.2,2.2-100.8,6.5c-34.2,4.4-68.7,4.5-103.2,4.5c-7.1,0-7.9-11-0.8-11c34.4,0,69,0.1,103.2-4.5c32.9-4.4,65.5-6.4,98.6-6.5c0.1,0,0.1,0,0.2,0h2C354.8,175.9,355.7,186.9,348.6,186.9z M138.7,141.9c17.3,0,34.5-0.4,51.7-1.5c16.6-1,33-3.4,49.7-3.8c17.8-0.4,35.5,0.4,53.3-0.1c8.5-0.2,17-1.1,25.5-1c8,0.1,15.9,0.4,23.8,0.4c7,0,7.9,11,0.8,11h-2c-0.2,0-0.5,0-0.7,0c-7.6-0.1-15.3-0.5-22.9-0.4c-8.5,0.1-17,0.9-25.6,1.1c-17.1,0.3-34.3-0.4-51.4,0.1c-17.2,0.5-34.3,2.9-51.5,3.9c-16.6,0.9-33.2,1.3-49.9,1.4C132.5,152.9,131.6,141.9,138.7,141.9z M139.7,232.9c67.7,0,135.3-3,203-2c7,0.1,7.9,11.1,0.8,11c-67.7-1-135.3,2-203,2C133.5,243.9,132.6,232.9,139.7,232.9z M349.6,291.9c-18.3-0.5-36.5,0.9-54.7,2.2c-17.8,1.3-35.6,1.6-53.4,1.9c-18,0.3-35.9,0.8-53.9,0.9c-15,0-29.9-1-44.9-1c-7.1,0-7.9-11-0.8-11h0.9c0.1,0,0.1,0,0.2,0c15.2,0,30.5,1.1,45.7,1c17.9-0.1,35.9-0.7,53.8-0.9c17.9-0.2,35.6-0.7,53.4-2c17.6-1.3,35.2-2.6,52.8-2.1C355.7,281.1,356.6,292.1,349.6,291.9z"/><path fill="#1E4384" d="M444.8,366c-15.9,4.8-29.6,14-45,20.1c-8.8,3.5-17.8,6.9-26.1,11.5c-2.2,1.2-6.2,2.5-8.9,3.6c-0.6,0.9-1.6,1.6-3,1.9c-2.3,0.5-4.4,0.8-6.4-1c-1.5-1.3-2-3.1-1.8-4.8c-0.1-0.5-0.1-1-0.1-1.5c1.5-21.3,2.9-42.3,2.9-63.6c0-4.5-0.5-9.1-0.6-13.6c-14.7,2.4-29.2,7.1-42.1,13.9c-9.6,5.1-19,11.2-26.3,19.3c-6.8,7.5-11.1,16.6-14.4,26.1c-6.6,18.9-11.9,45.7-0.5,63.8c0.3,0.5,0.5,1,0.7,1.5c17.2,16.3,38.5,27.6,62.3,30.6c23.8,3,50.2-0.9,71.3-12.5c19.7-10.9,37.8-28.4,43-51.1C453.2,395.5,450.8,380,444.8,366z"/><path fill="#EF4823" d="M434.6,348.1c-8.6-11.9-19.8-21.5-32.9-26.7c-1.9,0.4-3.8-0.1-5.1-1.8c-5.3-1.6-10.9-2.5-16.7-2.6c-4.3-0.1-8.7,0.1-13,0.4c0,0.6,0.1,1.2,0.1,1.9c0.2,1.9,0.4,3.9,0.5,5.9c0.2,7.7,0,15.4,0,23.1c0,13.7-1.3,27.5-2.4,41.2c1.4-0.5,2.8-1,4.1-1.7c8.2-4.2,16.7-7.8,25.3-11.2c15.5-6.2,29.5-15.4,45.4-20.4C438.2,353.3,436.4,350.6,434.6,348.1z"/><path d="M342.7 135.9c-8 0-15.9-.4-23.8-.4-8.5-.1-17 .8-25.5 1-17.8.5-35.5-.3-53.3.1-16.6.4-33.1 2.8-49.7 3.8-17.2 1.1-34.5 1.5-51.7 1.5-7.1 0-6.2 11 .8 11 16.6 0 33.3-.4 49.9-1.4 17.2-1 34.3-3.4 51.5-3.9 17.1-.5 34.3.2 51.4-.1 8.5-.2 17-1 25.6-1.1 7.6-.1 15.3.3 22.9.4.2 0 .5 0 .7 0h2C350.7 146.9 349.8 135.9 342.7 135.9zM347.7 175.9h-2c-.1 0-.1 0-.2 0-33.1.1-65.8 2.1-98.6 6.5-34.2 4.6-68.8 4.5-103.2 4.5-7.1 0-6.2 11 .8 11 34.4 0 69 0 103.2-4.5 33.6-4.4 66.9-6.5 100.8-6.5C355.7 186.9 354.8 175.9 347.7 175.9zM342.7 230.9c-67.7-1-135.3 2-203 2-7.1 0-6.2 11 .8 11 67.7 0 135.3-3 203-2C350.7 242 349.8 231 342.7 230.9zM348.7 280.9c-17.6-.5-35.2.8-52.8 2.1-17.8 1.3-35.6 1.8-53.4 2-17.9.2-35.9.8-53.8.9-15.3.1-30.5-.9-45.7-1-.1 0-.1 0-.2 0h-.9c-7.1 0-6.2 11 .8 11 15 0 29.9 1 44.9 1 18-.1 35.9-.6 53.9-.9 17.9-.3 35.6-.6 53.4-1.9 18.2-1.3 36.5-2.8 54.7-2.2C356.6 292.1 355.7 281.1 348.7 280.9z"/><path d="M457.1,367.5c-7.5-21.4-22.5-40.6-42.1-52.2c-2.9-1.7-5.9-3.1-8.9-4.3c0.3-0.7,0.4-1.5,0.4-2.4c0-1.8-0.2-3.6-1-5.2c-0.5-6.7-1.5-13.3-1.8-20.1c-0.4-7.8-0.2-15.6,0.1-23.4c0.9-30.6-1.2-61.1-2.7-91.6c-0.5-10.9-2.1-21.6-3.2-32.3c1.7-1.7,2.2-4.3,0.7-6.8c-0.4-0.7-0.9-1.2-1.5-1.6c0-0.4-0.1-0.8-0.1-1.1H396c-9.7-16.7-21.1-32.3-32.3-48.1c-5-7.1-11.9-12.8-17.8-19.1c-3.2-3.4-5.7-7.3-7.9-11.4c-1.5-2.7-2.6-4.7-4.5-6.3c-0.9-1.5-2.6-2.6-4.8-2.6c-1,0-1.7,0.1-2.7,0.4c-0.5,0.1-0.9,0.3-1.2,0.6c-2,0-4.1,0.1-6.1,0.1c-26.5,0-52.9,0.1-79.4,0.3c-52.2,0.3-104.4,0.7-156.6,0.7c-2.4,0-3.9,1.3-4.6,3c-0.9,1-1.5,2.3-1.5,3.9c0.1,32.2,2.8,64.3,1.6,96.5c-0.6,16.2-1.6,32.5-1.1,48.8c0.5,16.3,2.1,32.5,2.6,48.8c0.5,16.3,0.9,32.8-0.4,49.1c-1.2,15.7-2.3,31.4-2.5,47.2c-0.3,31.6,5.9,62.7,6.8,94.2c0,1.8,0.1,3.6,0.1,5.4c0,2.5,1.3,4,3.1,4.6c0.9,1.5,2.6,2.6,4.9,2.5c27.9-1.3,55.9,0.4,83.8,1.7c27.9,1.3,55.7,1.3,83.6,1c1,0,2,0,2.9,0c0.1,0.2,0.3,0.4,0.5,0.6c17.8,18.2,40.1,30.9,65.2,35.7c23.9,4.6,50.3,1.8,72.8-7.3c21.5-8.6,40.5-23.8,52.2-43.8C464.4,412.5,464.7,389.2,457.1,367.5z M396.7,319.5c1.2,1.7,3.2,2.1,5.1,1.8c13.1,5.2,24.2,14.8,32.9,26.7c1.9,2.6,3.6,5.3,5.2,8c-15.9,5.1-29.9,14.2-45.4,20.4c-8.6,3.4-17,7-25.3,11.2c-1.2,0.6-2.6,1.2-4.1,1.7c1.1-13.7,2.4-27.5,2.4-41.2c0-7.7,0.2-15.4,0-23.1c-0.1-2-0.3-3.9-0.5-5.9c0-0.6-0.1-1.2-0.1-1.9c4.4-0.4,8.7-0.5,13-0.4C385.8,317,391.4,317.9,396.7,319.5z M335.9,64.3c0.6,0.7,1.1,1.3,1.7,1.9c6,6.7,12.9,12.4,18.1,19.8c8.8,12.5,17.9,24.9,26,37.9c-5.4-0.9-10.8-1.1-13.6-1.4c-7.8-0.7-15.7-1.2-23.5-1.7c-3-0.2-6.2-0.3-9.3-0.6c2.8-10.1,3.8-20.4,3.7-30.9C338.9,80.8,337.3,72.5,335.9,64.3z M258.1,390.6c-0.1,0.2-0.1,0.5-0.2,0.8c-1.3,0.1-2.5,0.1-3.8,0.2c-17.7,0.8-35.3,0-53-0.4c-8.9-0.2-17.7-0.2-26.5,0.5c-9.5,0.7-19,2-28.5,1.4c-7-0.4-9.2,10.4-2.1,10.8c17.4,1,34.8-2.1,52.3-1.9c18.3,0.3,36.5,1.3,54.9,0.7c1.6-0.1,3.2-0.1,4.9-0.2c-1.5,11.4-1.3,23.4,2.1,34.2c-1.3,0-2.7,0-4,0.1c-27.2,0.3-54.4,0.2-81.6-1.1c-26-1.3-52-2.7-78-1.8c-0.5-30.4-6.4-60.3-6.8-90.7C87.6,327,88.7,311,89.9,295c1.2-16,1.2-32,0.9-48.1c-0.4-16.3-1.4-32.6-2.5-48.8c-1-16.2-0.1-32.5,0.6-48.8c1.4-32.2-0.9-64.3-1.3-96.5c0-0.3,0-0.6,0-0.9c50.2,0,100.4-0.4,150.6-0.7c25.8-0.1,51.6-0.3,77.4-0.3c2.4,0,4.9,0,7.3-0.1c1,11.5,4.3,22.7,4.9,34.3c0,0.2,0,0.4,0,0.6c-1.2-1.1-2.8-1.8-4.8-1.9c-6-0.4-12.3,0.2-18.3,0.6c-18.4,1.5-37.1,0.9-55.6,1.7c-37.8,1.7-75.6,4.7-113.4,4.8c-7.1,0-6.2,11,0.8,11c33.3,0,66.6-2.3,99.8-4.1c16.2-0.9,32.3-1.6,48.5-1.8c8.1-0.1,16.1-0.3,24.2-0.9c2.7-0.2,5.3-0.2,8-0.3c1.1-0.1,2.2-0.1,3.2-0.1c0.2,0,0.5,0,0.7,0c2,1.8,4.9,2.3,7-0.3c-0.2,9.4-1.6,18.8-4.8,27.6c-1.3,3.6,0.2,6.7,3.9,7.8c4,1.2,8.5,1.3,12.6,1.6c6.7,0.5,13.3,0.9,20,1.4c6.5,0.5,13.1,1.1,19.6,2.2c1.9,0.3,5.3,1.1,6.3,1.5c0.2,0.1,0.7,0.3,1.2,0.5c0.1,0.5,0.2,1,0.4,1.4c0.1,1,0.2,1.9,0.4,2.9c2.1,15.6,2.7,31.1,3.5,46.8c0.7,15.8,1.9,31.7,2.2,47.5c0.3,16.2-1.2,32.4-0.5,48.6c0.3,6.9,1.3,13.8,1.9,20.7c0,0.2,0,0.4,0,0.6c0,0.7,0,1.4,0,2.2c-14.1-2.9-29.1-1.7-43.2,0.9c-17.1,3.2-34.2,9.1-49.2,18.1c-0.2,0-0.4,0-0.6,0c-3.5,0-8.6,0-12.5,1.4c-0.2,0-0.4,0-0.6,0c-21.4,1.3-42.8,3.4-64.3,4.9c-17.7,1.2-36,2.1-53.7,0.7c-6.8-0.5-13.6-1.1-20.4-1.1c-4.8,0-11.2,0.1-15.1,3.4c-5.3,4.6,0.8,13.8,6.2,9.1c2.8-2.5,9.5-1.6,13.3-1.5c5.9,0.1,11.9,0.8,17.8,1.2c18,1.3,36.6,0.3,54.6-0.9c19.3-1.3,38.6-3.2,57.9-4.5C270.2,352.8,262.5,371,258.1,390.6z M449.8,410.3c-5.2,22.7-23.3,40.2-43,51.1c-21.1,11.7-47.5,15.5-71.3,12.5c-23.8-3-45.1-14.3-62.3-30.6c-0.1-0.5-0.4-1-0.7-1.5c-11.4-18.2-6.1-44.9,0.5-63.8c3.3-9.5,7.7-18.5,14.4-26.1c7.3-8.1,16.7-14.3,26.3-19.3c13-6.9,27.4-11.6,42.1-13.9c0.1,4.5,0.6,9.1,0.6,13.6c0,21.3-1.4,42.4-2.9,63.6c0,0.5,0,1.1,0.1,1.5c-0.3,1.7,0.2,3.4,1.8,4.8c2,1.7,4,1.5,6.4,1c1.4-0.3,2.4-1,3-1.9c2.7-1.1,6.6-2.4,8.9-3.6c8.3-4.6,17.3-8,26.1-11.5c15.4-6.1,29.1-15.3,45-20.1C450.8,380,453.2,395.5,449.8,410.3z"/></svg>