<svg xmlns="http://www.w3.org/2000/svg"  viewBox="0 0 40 40" width="160px" height="160px"><path fill="#ffc49c" d="M2.5 38.5L2.5 10.263 19.497 3.538 36.5 10.263 36.5 38.5z"/><path fill="#a16a4a" d="M19.497,4.075L36,10.603V38H3V10.603L19.497,4.075 M19.497,3L2,9.923V39h35V9.923L19.497,3 L19.497,3z"/><path fill="none" stroke="#a16a4a" stroke-linecap="round" stroke-linejoin="round" stroke-miterlimit="10" d="M19.5 38.5L19.5 5.5M36 22.5L3 22.5M13 26.5L9 26.5M30 26.5L26 26.5M13 10.5L9 10.5M30 10.5L26 10.5"/><g><path fill="#f78f8f" d="M19.695,5.541C19.632,5.514,19.564,5.5,19.497,5.5s-0.135,0.014-0.198,0.041L1.5,13.239v-3.91 l17.997-7.784L37.5,9.329v3.911L19.695,5.541z"/><path fill="#c74343" d="M19.497,2.089L37,9.657v2.821L19.894,5.082C19.767,5.027,19.632,5,19.497,5 c-0.135,0-0.27,0.027-0.397,0.082L2,12.478V9.657L19.497,2.089 M19.497,1L1,9v5l18.497-8L38,14V9L19.497,1L19.497,1z"/></g></svg>